# xmcd CD database file
#
# Track frame offsets:
#	150
#	15832
#	31395
#	50005
#	62685
#	73630
#	88937
#	102975
#	122460
#	136002
#	158490
#	172582
#	189447
#	204102
#	217810
#
# Disc length: 3193 seconds
#
# Revision: 2
# Processed by: cddbd v1.4PL0 Copyright (c) Steve Scherf et al.
# Submitted via: CDex 1.50Beta7
#
DISCID=b30c770f
DTITLE=Christoph Pfaff - Blues for Medha
DYEAR=1900
DGENRE=Blues
TTITLE0=Take This Hammer
TTITLE1=Fine Brown frame
TTITLE2=Drown In My Own Tears
TTITLE3=Key To The Highway
TTITLE4=Alley Boogie
TTITLE5=The Right Time
TTITLE6=Room With A View
TTITLE7=The Death Of Norbert M.
TTITLE8=Shake Your Moneymaker
TTITLE9=I Wonder
TTITLE10=My Babe
TTITLE11=Down In The Alley
TTITLE12=Midnight Train
TTITLE13=Kansas City
TTITLE14=Blues For Medha
EXTD=
EXTT0=
EXTT1=
EXTT2=
EXTT3=
EXTT4=
EXTT5=
EXTT6=
EXTT7=
EXTT8=
EXTT9=
EXTT10=
EXTT11=
EXTT12=
EXTT13=
EXTT14=
PLAYORDER=
